<svg xmlns="http://www.w3.org/2000/svg" width="612" height="612" viewBox="0 0 612 612"><radialGradient id="a" cx="354.19" cy="384.748" r="209.483" gradientTransform="translate(0 -88)" gradientUnits="userSpaceOnUse"><stop offset="0" stop-color="#77cae3"/><stop offset="1" stop-color="#1992d1"/></radialGradient><path fill="url(#a)" d="M538.648 371.259c0 126.984-102.938 229.927-229.917 229.927-126.982 0-229.924-102.943-229.924-229.927 0-126.975 102.942-229.913 229.924-229.913 126.98-.003 229.917 102.938 229.917 229.913z"/><radialGradient id="b" cx="339.558" cy="457.185" r="34.892" gradientTransform="translate(0 -88)" gradientUnits="userSpaceOnUse"><stop offset="0" stop-color="#fff"/><stop offset="1" stop-color="#f6f6f6"/></radialGradient><path fill="url(#b)" d="M374.451 396.324c0 4.278-3.48 7.752-7.758 7.752h-54.269c-4.284 0-7.761-3.474-7.761-7.752V342.05c0-4.283 3.477-7.755 7.761-7.755h54.269c4.277 0 7.758 3.472 7.758 7.755v54.274z"/><radialGradient id="c" cx="330.707" cy="470.586" r="13.405" gradientTransform="translate(0 -88)" gradientUnits="userSpaceOnUse"><stop offset="0" stop-color="#585857"/><stop offset="1" stop-color="#3d3d3c"/></radialGradient><path fill="url(#c)" d="M344.111 388.231a7.763 7.763 0 0 1-7.759 7.761H325.06a7.755 7.755 0 0 1-7.756-7.761v-11.294c0-4.275 3.468-7.758 7.756-7.758h11.293c4.278 0 7.759 3.482 7.759 7.758v11.294h-.001z"/><radialGradient id="d" cx="336.102" cy="466.039" r="4.97" gradientTransform="translate(1.875 -89.312)" gradientUnits="userSpaceOnUse"><stop offset="0" stop-color="#fff"/><stop offset="1" stop-color="#f6f6f6"/></radialGradient><path fill="url(#d)" d="M340.274 380.764a2.884 2.884 0 0 1-2.892 2.861l-4.184-.028a2.866 2.866 0 0 1-2.855-2.893l.02-4.182a2.887 2.887 0 0 1 2.897-2.86l4.176.023a2.887 2.887 0 0 1 2.866 2.891l-.028 4.188z"/><g><radialGradient id="e" cx="235.304" cy="457.185" r="34.892" gradientTransform="translate(0 -88)" gradientUnits="userSpaceOnUse"><stop offset="0" stop-color="#fff"/><stop offset="1" stop-color="#f6f6f6"/></radialGradient><path fill="url(#e)" d="M270.196 396.324a7.756 7.756 0 0 1-7.758 7.752h-54.27c-4.282 0-7.757-3.474-7.757-7.752V342.05a7.757 7.757 0 0 1 7.757-7.755h54.27a7.752 7.752 0 0 1 7.758 7.755v54.274z"/><radialGradient id="f" cx="244.998" cy="470.586" r="13.405" gradientTransform="translate(0 -88)" gradientUnits="userSpaceOnUse"><stop offset="0" stop-color="#585857"/><stop offset="1" stop-color="#3d3d3c"/></radialGradient><path fill="url(#f)" d="M258.402 388.231a7.755 7.755 0 0 1-7.757 7.761H239.35a7.76 7.76 0 0 1-7.757-7.761v-11.294c0-4.275 3.475-7.758 7.757-7.758h11.294c4.288 0 7.757 3.482 7.757 7.758v11.294z"/><radialGradient id="g" cx="250.398" cy="466.527" r="4.968" gradientTransform="translate(1.875 -89.312)" gradientUnits="userSpaceOnUse"><stop offset="0" stop-color="#fff"/><stop offset="1" stop-color="#f6f6f6"/></radialGradient><path fill="url(#g)" d="M254.57 380.764a2.878 2.878 0 0 1-2.892 2.861l-4.186-.028a2.861 2.861 0 0 1-2.852-2.893l.02-4.182a2.873 2.873 0 0 1 2.891-2.86l4.184.023c1.586.016 2.872 1.302 2.856 2.891l-.021 4.188z"/></g><path fill="#010101" d="M308.731 307.08h65.72v11.125h-65.72zM197.453 307.08h65.715v11.125h-65.715z"/><g><radialGradient id="h" cx="1082.028" cy="221.243" r="242.777" gradientTransform="matrix(.3733 -.4443 .6674 .5608 -226.062 388.624)" gradientUnits="userSpaceOnUse"><stop offset="0" stop-color="#30565f"/><stop offset="1" stop-color="#003049"/></radialGradient><path fill="url(#h)" d="M246.034 8.172s1.611 2.16 4.536 5.909c2.885 3.768 7.208 9.071 11.787 15.912 1.127 1.691 2.302 3.537 3.367 5.409 1.087 1.826 2.244 3.855 3.267 5.926 2.078 4.153 3.832 8.638 5.046 13.216 2.493 9.199 2.681 18.536 2.016 27.208-.327 4.356-.832 8.593-1.319 12.713-.195 1.732-.275 3.847-.31 5.811-.039 1.992-.005 3.996.071 5.995.299 7.99 1.406 15.773 3.065 22.424 1.629 6.662 3.875 12.146 5.857 15.716 1.984 3.616 3.524 5.348 3.97 5.962 1.817 2.403 2.578 4.392 3.802 7.201 1.123 2.724 2.582 5.963 2.225 8.692-.326 2.688-2.818 4.375-7.692 3.247-2.384-.563-5.311-1.88-8.237-3.951-2.935-2.047-5.794-4.815-8.056-7.843-1.131-1.485-4.24-6.036-6.714-12.12-2.535-6.09-4.397-13.538-5.159-21.364-.783-7.837-.583-16.137.552-24.417.29-2.073.638-4.145 1.058-6.211.433-2.089.862-4.052 1.547-6.25 1.217-3.754 2.427-7.483 3.455-11.238 2.069-7.498 3.29-15.217 2.397-23.069-.424-3.917-1.356-7.838-2.672-11.61-.654-1.895-1.415-3.715-2.239-5.582a80.836 80.836 0 0 0-2.458-5.243c-3.455-6.722-7.076-12.346-9.442-16.27-2.403-3.927-3.72-6.173-3.72-6.173z"/><radialGradient id="i" cx="1069.488" cy="223.635" r="242.775" gradientTransform="matrix(.5248 -.6245 .7383 .6204 -372.666 513.476)" gradientUnits="userSpaceOnUse"><stop offset="0" stop-color="#30565f"/><stop offset="1" stop-color="#003049"/></radialGradient><path fill="url(#i)" d="M510.929 70.297c-.028-.019-.519 3.719-2.128 10.075-1.64 6.316-4.442 15.299-10.018 25.022-5.543 9.691-14.097 20.096-26.537 27.884a80.307 80.307 0 0 1-9.932 5.303c-3.45 1.552-7.211 3.01-11.212 4.065-7.955 2.157-16.968 2.817-26.057 1.762-9.084-1.023-18.12-3.625-26.604-6.826-8.502-3.199-16.524-6.974-24.125-10.676l-11.006-5.447c-3.215-1.542-6.335-2.822-9.26-3.731-5.895-1.864-10.675-2.065-14.141-1.048-6.879 1.869-11.488 8.974-14.401 14.815-.333.665-.524 1.15-.756 1.765l-.755 1.977a67.06 67.06 0 0 0-1.128 3.464c-.607 2.056-.971 3.555-1.196 4.303-1.706 6.032-4.084 11.413-7.001 15.306-2.912 3.863-6.411 6.266-10.354 5.648-3.898-.609-7.533-4.366-9.667-10.283-2.146-5.883-2.731-13.871-.472-21.879.29-.997.899-2.925 1.963-5.605a75.41 75.41 0 0 1 1.99-4.561c.4-.836.852-1.725 1.335-2.645.505-1 1.166-2.154 1.81-3.138 2.413-3.708 5.499-8.016 10.208-12.276 2.358-2.12 5.148-4.213 8.534-5.978a37.156 37.156 0 0 1 11.797-3.809c4.403-.665 9.146-.525 13.745.294 4.619.801 9.095 2.243 13.32 4.021 4.248 1.785 8.267 3.913 12.138 6.232l10.554 6.453c14.003 8.475 28.621 16.788 43.499 20.016 7.411 1.624 14.826 1.909 21.879.857 3.546-.517 6.924-1.374 10.335-2.434a74.477 74.477 0 0 0 9.617-3.72c12.247-5.684 21.576-14.303 28.025-22.838 6.506-8.538 10.35-16.878 12.706-22.812 2.339-5.972 3.27-9.574 3.295-9.556z"/><radialGradient id="j" cx="1069.489" cy="223.637" r="242.781" gradientTransform="matrix(.5248 -.6245 .7383 .6204 -372.666 513.476)" gradientUnits="userSpaceOnUse"><stop offset="0" stop-color="#30565f"/><stop offset="1" stop-color="#003049"/></radialGradient><path fill="url(#j)" d="M492.632 233.098c-.02.009-.589-3.592-.589-9.804-.079-6.214.34-15.041.036-25.645-.189-5.282-.549-11.067-1.807-16.941-.632-2.919-1.514-5.883-2.847-8.506a19.206 19.206 0 0 0-1.066-1.87 14.534 14.534 0 0 0-1.159-1.53c-.843-.97-1.84-1.816-2.947-2.439a10.44 10.44 0 0 0-3.498-1.223c-1.107-.185-2.503-.242-3.925-.13-.727.054-1.388.13-2.21.266l-2.504.377c-1.647.259-3.28.603-4.914.955-6.546 1.449-13.068 3.572-19.646 5.892-6.587 2.314-13.23 4.853-20.156 7.113a210.867 210.867 0 0 1-5.259 1.62l-2.691.762c-1.008.268-2.032.542-2.928.687-3.777.748-7.168 1.407-10.68 2.022-13.935 2.5-27.527 4.143-39.829 4.757-6.147.319-11.951.406-17.267.294l-13.543-.329c-8.189-.246-14.287-1.077-16.391-1.485-4.192-.796-8.372-2.217-12.175-4.222-3.792-2.001-7.202-4.599-9.644-7.425-2.457-2.811-3.863-5.764-4.107-8.101-.269-2.367.565-4.054 1.963-5.126 1.418-1.086 3.23-1.572 5.015-1.984a59.33 59.33 0 0 1 5.462-.994c3.678-.485 8.229-.378 14.357.77 1.522.293 5.941 1.294 13.299 2.243l6.137.75 3.65.44 3.571.471c4.774.603 10.068 1.079 15.777 1.414 11.413.675 24.502.617 38.331-.208 3.437-.187 7.041-.465 10.329-.695.886-.052 1.577-.152 2.312-.253l2.493-.383a179.02 179.02 0 0 0 5.08-.906c6.827-1.312 13.82-2.994 20.966-4.542 7.154-1.545 14.482-2.959 21.984-3.68 1.88-.172 3.751-.322 5.653-.392l2.78-.089a37.182 37.182 0 0 1 3.105.017c2.147.106 4.36.406 6.789 1.129 2.355.709 4.604 1.794 6.586 3.247a21.548 21.548 0 0 1 5.009 5.127 26.068 26.068 0 0 1 1.762 2.953c.483.957.893 1.9 1.234 2.827 1.373 3.723 1.932 7.194 2.27 10.476.584 6.552.182 12.373-.28 17.674-1.044 10.577-2.566 19.043-3.262 25.07-.777 6.003-.645 9.549-.626 9.549z"/><radialGradient id="k" cx="1062.968" cy="226.125" r="242.762" gradientTransform="rotate(-49.962 426.172 822.343)" gradientUnits="userSpaceOnUse"><stop offset="0" stop-color="#30565f"/><stop offset="1" stop-color="#003049"/></radialGradient><path fill="url(#k)" d="M185.37 78.844c-.021.034 2.179.671 5.781 2.592 3.563 1.91 8.579 5.264 13.191 10.975a46.139 46.139 0 0 1 6.2 10.206c.436.983.834 1.993 1.216 3.048.384 1.139.733 2.31.972 3.478.523 2.347.783 4.711.933 7.049.309 4.696.166 9.335.23 13.776.073 4.377.378 8.743 1.521 11.613 1.471 4.138 8.31 7.142 15.691 8.359 7.441 1.277 15.268 1.271 22.138.948 13.812-.73 24.004-2.586 26.096-2.66 8.419-.513 16.106 5.632 17.147 14.234 1.043 8.59-5.717 16.474-15.198 17.068-2.369.069-13.684.087-29.605-2.24-7.952-1.237-17.095-2.992-26.831-6.842-4.846-1.984-9.907-4.508-14.661-8.484-2.377-2.002-4.602-4.354-6.475-7.245-.983-1.52-1.841-3.114-2.413-4.809-.614-1.667-1.002-3.489-1.216-5.029-.774-6.327.259-11.401 1.113-16.093.922-4.671 1.964-8.936 2.551-12.913.29-1.988.479-3.891.479-5.675a22.586 22.586 0 0 0-.145-2.593 42.227 42.227 0 0 0-.457-2.715c-.724-3.579-1.94-6.881-3.395-9.796-2.936-5.854-6.86-10.003-9.845-12.546-3.01-2.567-5.045-3.677-5.018-3.706z"/><radialGradient id="l" cx="1082.016" cy="221.246" r="242.767" gradientTransform="matrix(.3733 -.4443 .6674 .5608 -226.062 388.624)" gradientUnits="userSpaceOnUse"><stop offset="0" stop-color="#30565f"/><stop offset="1" stop-color="#003049"/></radialGradient><path fill="url(#l)" d="M295.36 68.863c.039.016-2.787 4.455-6.417 11.52-1.789 3.55-3.739 7.783-5.353 12.542-1.615 4.752-2.891 10.061-3.173 15.58-.304 5.505.493 11.22 2.494 16.261a37.65 37.65 0 0 0 3.634 7.016c1.53 2.376 3.215 4.657 5.004 7.067 3.565 4.753 7.171 9.694 9.592 14.032 2.472 4.334 3.667 7.838 3.958 8.981.629 2.333.636 4.557.108 6.304-.519 1.756-1.565 3.014-2.853 3.72-2.616 1.43-6.033.654-9.164-1.295-3.172-1.979-5.659-4.649-7.622-6.774-1.964-2.2-3.31-3.601-3.709-5.119-.115-.406-.182-1.476-1.081-3.928-.869-2.439-2.833-6.318-5.773-11.742-1.426-2.688-3.115-5.883-4.61-9.337-1.593-3.655-2.778-7.501-3.41-11.192a39.863 39.863 0 0 1 1.595-19.862c1.955-5.701 4.872-10.488 7.925-14.592 3.046-4.097 6.261-7.505 9.092-10.302 5.699-5.572 9.787-8.857 9.763-8.88z"/><radialGradient id="m" cx="994.84" cy="258.789" r="242.768" gradientTransform="scale(1 -1) rotate(-66.652 161.195 453.636)" gradientUnits="userSpaceOnUse"><stop offset="0" stop-color="#30565f"/><stop offset="1" stop-color="#003049"/></radialGradient><path fill="url(#m)" d="M280.815 313.267c.051 0-2.788-8.562-6.212-21.63-1.674-6.534-3.455-14.196-4.731-22.45-1.267-8.218-2.038-17.051-1.535-25.545.468-8.484 2.344-16.537 5.612-22.793a37.695 37.695 0 0 1 5.623-8.111c2.266-2.533 4.729-4.851 7.322-7.271 5.18-4.762 10.439-9.771 14.123-14.682 3.747-4.853 5.775-9.326 6.311-10.848 1.151-3.095 1.506-6.434 1.115-9.404-.383-2.993-1.491-5.586-2.975-7.513-3.037-3.896-7.418-5.029-11.629-4.193-4.253.836-7.759 3.201-10.534 5.078-2.781 1.999-4.677 3.202-5.409 5.214-.212.539-.466 2.102-1.957 5.188-1.466 3.085-4.507 7.599-9.004 13.795-2.197 3.079-4.796 6.759-7.187 10.952a60.043 60.043 0 0 0-5.977 14.545c-2.752 10.33-2.643 21.094-1.085 30.938 1.55 9.883 4.446 19.038 7.604 27.247 3.175 8.205 6.638 15.479 9.729 21.584 6.24 12.191 10.831 19.872 10.796 19.899z"/><radialGradient id="n" cx="1062.986" cy="226.125" r="242.784" gradientTransform="rotate(-49.962 426.172 822.343)" gradientUnits="userSpaceOnUse"><stop offset="0" stop-color="#30565f"/><stop offset="1" stop-color="#003049"/></radialGradient><path fill="url(#n)" d="M410.023 121.341c-.034-.018.248 3.125-1.291 8.244a37.555 37.555 0 0 1-3.939 8.781c-2.031 3.137-4.69 6.736-9.594 9.138l.274-.101c-1.096.621-2.296 1.237-3.701 1.75-1.395.508-3.099.891-4.903.885-1.806.006-3.459-.349-4.76-.617-1.299-.274-2.38-.491-3.426-.629a24.55 24.55 0 0 0-1.559-.144c-.608-.064-.774-.009-1.463-.023a56.827 56.827 0 0 0-3.501.072c-2.34.12-4.685.365-7.036.744-9.377 1.494-18.643 4.986-27.335 8.57-8.672 3.612-16.902 7.211-23.605 9.583-6.691 2.422-11.73 3.674-13.135 3.881a13.374 13.374 0 0 1-11.163-3.448c-2.892-2.693-4.48-6.645-4.462-10.961a20.65 20.65 0 0 1 3.325-11.181c1.938-2.935 4.452-4.937 7.556-5.407 1.062-.167 4.92-.286 11.032-1.009 6.123-.663 14.531-2.108 24.479-3.593 9.9-1.43 21.505-2.76 33.037-1.608 2.873.271 5.727.711 8.503 1.293 1.393.295 2.763.623 4.108.993.568.154 1.635.427 2.253.666.709.24 1.406.505 2.079.782a52.127 52.127 0 0 1 3.601 1.682c1.017.513 1.688.847 2.268 1.049 1.066.439 2.878.277 4.809-.262l.53-.145-.253.046c3.043-.479 6.171-2.626 8.513-4.851 2.384-2.258 4.203-4.687 5.524-6.809 2.644-4.283 3.225-7.389 3.235-7.371z"/><radialGradient id="o" cx="1082.023" cy="221.246" r="242.753" gradientTransform="matrix(.3733 -.4443 .6674 .5608 -226.062 388.624)" gradientUnits="userSpaceOnUse"><stop offset="0" stop-color="#30565f"/><stop offset="1" stop-color="#003049"/></radialGradient><path fill="url(#o)" d="M324.28 2.055l2.285 6.75c1.436 4.311 3.76 10.468 5.698 17.99.942 3.744 1.712 7.855 1.806 12.074.116 4.215-.508 8.483-1.89 12.446-.678 1.964-1.616 3.947-2.528 5.695l-2.692 5.423-5.659 11.013c-3.761 7.382-7.303 14.857-9.826 22.253a95.766 95.766 0 0 0-3.063 10.99l-2.539 10.773c-1.545 6.606-2.421 12.18-2.706 16.39-.296 4.196-.115 7.005-.136 7.944-.045 3.767-.963 6.817-2.573 9.113-1.62 2.255-3.953 3.756-7.162 3.365-3.182-.383-6.71-2.8-9.526-6.745-2.818-3.899-4.791-9.309-4.717-14.462.015-1.265.245-4.951 1.35-9.828 1.071-4.878 3.135-10.825 5.852-17.065l4.288-9.729a94.26 94.26 0 0 1 5.419-10.857c4.142-7.137 9.241-13.878 14.415-20.321l7.698-9.481 3.688-4.676c1.264-1.528 2.305-2.892 3.229-4.469a26.739 26.739 0 0 0 3.521-9.974c.532-3.527.417-7.186.062-10.66-.776-6.991-2.209-13.115-3-17.322l-1.294-6.63z"/></g><path opacity=".5" fill="#010101" d="M255.012 443.943c2.312 3.335 4.978 6.362 8.012 8.942 2.962 2.642 6.245 4.887 9.772 6.566 7.05 3.369 14.936 4.58 22.673 3.616 7.757-.837 15.284-3.545 22.485-6.94 3.615-1.694 7.128-3.635 10.56-5.73 3.507-1.992 6.845-4.254 10.272-6.454-5.845 5.654-12.365 10.636-19.506 14.714-7.119 4.101-15.035 7.104-23.404 8.096-8.325.966-17.137-.516-24.406-4.793-7.256-4.209-13.128-10.575-16.458-18.017z"/><g><linearGradient id="p" gradientUnits="userSpaceOnUse" x1="261.59" y1="447.181" x2="185.996" y2="497.303" gradientTransform="translate(0 -88)"><stop offset="0" stop-color="#fff" stop-opacity=".5"/><stop offset="1" stop-color="#fff"/></linearGradient><path opacity=".25" fill="url(#p)" d="M267.395 402.381c0 3.687-3.096 6.681-6.913 6.681h-71.518c-3.818 0-6.919-2.994-6.919-6.681v-37.518c0-3.686 3.101-6.67 6.919-6.67h71.518c3.817 0 6.913 2.984 6.913 6.67v37.518z"/><linearGradient id="q" gradientUnits="userSpaceOnUse" x1="263.681" y1="445.887" x2="184.093" y2="498.656" gradientTransform="translate(0 -88)"><stop offset="0" stop-color="#585857"/><stop offset="1" stop-color="#010101"/></linearGradient><path fill="url(#q)" d="M260.331 411.65h-70.924c-5.483 0-9.952-4.464-9.952-9.951v-36.152c0-5.484 4.468-9.958 9.952-9.958h70.924c5.489 0 9.955 4.474 9.955 9.958v36.152c-.003 5.49-4.466 9.951-9.955 9.951zm-70.924-50.863a4.766 4.766 0 0 0-4.756 4.76v36.152a4.76 4.76 0 0 0 4.756 4.754h70.924a4.763 4.763 0 0 0 4.765-4.754v-36.152a4.77 4.77 0 0 0-4.765-4.76h-70.924z"/><g><linearGradient id="r" gradientUnits="userSpaceOnUse" x1="382.696" y1="447.181" x2="307.102" y2="497.303" gradientTransform="translate(0 -88)"><stop offset="0" stop-color="#fff" stop-opacity=".5"/><stop offset="1" stop-color="#fff"/></linearGradient><path opacity=".25" fill="url(#r)" d="M388.5 402.381c0 3.687-3.096 6.681-6.908 6.681h-71.521c-3.813 0-6.917-2.994-6.917-6.681v-37.518c0-3.686 3.1-6.67 6.917-6.67h71.521c3.812 0 6.908 2.984 6.908 6.67v37.518z"/><linearGradient id="s" gradientUnits="userSpaceOnUse" x1="384.783" y1="445.889" x2="305.2" y2="498.656" gradientTransform="translate(0 -88)"><stop offset="0" stop-color="#585857"/><stop offset="1" stop-color="#010101"/></linearGradient><path fill="url(#s)" d="M381.438 411.65h-70.925c-5.492 0-9.953-4.464-9.953-9.951v-36.152c0-5.484 4.461-9.958 9.953-9.958h70.925c5.481 0 9.95 4.474 9.95 9.958v36.152c.001 5.49-4.468 9.951-9.95 9.951zm-70.923-50.863a4.769 4.769 0 0 0-4.766 4.76v36.152c0 2.624 2.139 4.754 4.766 4.754h70.925a4.762 4.762 0 0 0 4.758-4.754v-36.152a4.771 4.771 0 0 0-4.758-4.76h-70.925z"/></g><linearGradient id="t" gradientUnits="userSpaceOnUse" x1="270.196" y1="468.519" x2="300.565" y2="468.519" gradientTransform="translate(0 -88)"><stop offset="0" stop-color="#595758"/><stop offset="1" stop-color="#191919"/></linearGradient><path fill="url(#t)" d="M270.196 378.664h30.368v3.712h-30.368z"/></g></svg>
